<svg width="116" height="40" viewBox="0 0 116 40" fill="none" xmlns="http://www.w3.org/2000/svg">
<g filter="url(#filter0_dd_11229_4)">
<path d="M17.2 2.68001H22.36L34.68 31H27.64L25.2 25H14.2L11.84 31H4.95996L17.2 2.68001ZM19.6 10.92L16.16 19.72H23.08L19.6 10.92Z" fill="white"/>
<path d="M36.8484 0.76001H42.8484V31H36.8484V0.76001Z" fill="white"/>
<path d="M47.239 11.56H53.239V31H47.239V11.56ZM46.759 5.44001C46.759 4.48001 47.0924 3.66668 47.759 3.00001C48.4524 2.30668 49.279 1.96001 50.239 1.96001C51.199 1.96001 52.0124 2.30668 52.679 3.00001C53.3724 3.66668 53.719 4.48001 53.719 5.44001C53.719 6.40001 53.3724 7.22668 52.679 7.92001C52.0124 8.58668 51.199 8.92001 50.239 8.92001C49.279 8.92001 48.4524 8.58668 47.759 7.92001C47.0924 7.22668 46.759 6.40001 46.759 5.44001Z" fill="white"/>
<path d="M55.5097 11.56H61.9897L66.9096 24.76H66.9897L71.5497 11.56H77.5897L69.9097 31H63.5496L55.5097 11.56Z" fill="white"/>
<path d="M79.8562 11.56H85.8562V31H79.8562V11.56ZM79.3762 5.44001C79.3762 4.48001 79.7095 3.66668 80.3762 3.00001C81.0695 2.30668 81.8962 1.96001 82.8562 1.96001C83.8162 1.96001 84.6295 2.30668 85.2962 3.00001C85.9895 3.66668 86.3362 4.48001 86.3362 5.44001C86.3362 6.40001 85.9895 7.22668 85.2962 7.92001C84.6295 8.58668 83.8162 8.92001 82.8562 8.92001C81.8962 8.92001 81.0695 8.58668 80.3762 7.92001C79.7095 7.22668 79.3762 6.40001 79.3762 5.44001Z" fill="white"/>
<path d="M89.4468 21.28C89.4468 19.7333 89.7268 18.3333 90.2868 17.08C90.8468 15.8267 91.6068 14.76 92.5668 13.88C93.5535 12.9733 94.7002 12.28 96.0068 11.8C97.3402 11.32 98.7535 11.08 100.247 11.08C101.74 11.08 103.14 11.32 104.447 11.8C105.78 12.28 106.927 12.9733 107.887 13.88C108.874 14.76 109.647 15.8267 110.207 17.08C110.767 18.3333 111.047 19.7333 111.047 21.28C111.047 22.8267 110.767 24.2267 110.207 25.48C109.647 26.7333 108.874 27.8133 107.887 28.72C106.927 29.6 105.78 30.28 104.447 30.76C103.14 31.24 101.74 31.48 100.247 31.48C98.7535 31.48 97.3402 31.24 96.0068 30.76C94.7002 30.28 93.5535 29.6 92.5668 28.72C91.6068 27.8133 90.8468 26.7333 90.2868 25.48C89.7268 24.2267 89.4468 22.8267 89.4468 21.28ZM95.4468 21.28C95.4468 22.7467 95.8602 23.9333 96.6868 24.84C97.5402 25.7467 98.7268 26.2 100.247 26.2C101.767 26.2 102.94 25.7467 103.767 24.84C104.62 23.9333 105.047 22.7467 105.047 21.28C105.047 19.8133 104.62 18.6267 103.767 17.72C102.94 16.8133 101.767 16.36 100.247 16.36C98.7268 16.36 97.5402 16.8133 96.6868 17.72C95.8602 18.6267 95.4468 19.8133 95.4468 21.28Z" fill="white"/>
</g>
<defs>
<filter id="filter0_dd_11229_4" x="0.959961" y="0.76001" width="114.087" height="38.72" filterUnits="userSpaceOnUse" color-interpolation-filters="sRGB">
<feFlood flood-opacity="0" result="BackgroundImageFix"/>
<feColorMatrix in="SourceAlpha" type="matrix" values="0 0 0 0 0 0 0 0 0 0 0 0 0 0 0 0 0 0 127 0" result="hardAlpha"/>
<feOffset dy="4"/>
<feGaussianBlur stdDeviation="2"/>
<feComposite in2="hardAlpha" operator="out"/>
<feColorMatrix type="matrix" values="0 0 0 0 0 0 0 0 0 0 0 0 0 0 0 0 0 0 0.25 0"/>
<feBlend mode="normal" in2="BackgroundImageFix" result="effect1_dropShadow_11229_4"/>
<feColorMatrix in="SourceAlpha" type="matrix" values="0 0 0 0 0 0 0 0 0 0 0 0 0 0 0 0 0 0 127 0" result="hardAlpha"/>
<feOffset dy="4"/>
<feGaussianBlur stdDeviation="2"/>
<feComposite in2="hardAlpha" operator="out"/>
<feColorMatrix type="matrix" values="0 0 0 0 0 0 0 0 0 0 0 0 0 0 0 0 0 0 0.25 0"/>
<feBlend mode="normal" in2="effect1_dropShadow_11229_4" result="effect2_dropShadow_11229_4"/>
<feBlend mode="normal" in="SourceGraphic" in2="effect2_dropShadow_11229_4" result="shape"/>
</filter>
</defs>
</svg>
